<svg xmlns="http://www.w3.org/2000/svg" xmlns:xlink="http://www.w3.org/1999/xlink" xmlns:lucid="lucid" width="1666" height="1944"><g transform="translate(-52 -11)" lucid:page-tab-id="0_0"><path d="M82.06 207.73C80.92 203.46 83.58 200 88 200h1584c4.42 0 7.08 3.46 5.94 7.73l-113.2 424.54c-1.15 4.27-5.66 7.73-10.07 7.73H205.33c-4.4 0-8.92-3.46-10.06-7.73z" stroke="#000" stroke-opacity="0" fill="#83bbe5"/><path d="M202.06 665.48c-1.14-4.27 1.52-7.73 5.94-7.73h1344c4.42 0 7.08 3.46 5.94 7.73l-90.87 340.75c-1.14 4.27-5.64 7.73-10.06 7.73H303c-4.43 0-8.93-3.46-10.07-7.73z" stroke="#000" stroke-opacity="0" fill="#b2d6ef"/><path d="M306.56 1039.43c-1.14-4.26 1.52-7.73 5.94-7.73h1138.8c4.4 0 7.07 3.47 5.93 7.73l-88.75 332.84c-1.14 4.27-5.65 7.73-10.06 7.73H405.38c-4.42 0-8.92-3.46-10.06-7.73z" stroke="#000" stroke-opacity="0" fill="#b6e7f4"/><path d="M1300 180h364.7v129.64H1300z" stroke="#000" stroke-opacity="0" fill="#fff" fill-opacity="0"/><use xlink:href="#a" transform="matrix(1,0,0,1,1304.8,184.8) translate(11.666666666666657 69.8125)"/><use xlink:href="#b" transform="matrix(1,0,0,1,1304.8,184.8) translate(175.88888888888889 69.8125)"/><use xlink:href="#c" transform="matrix(1,0,0,1,1304.8,184.8) translate(233.55555555555557 69.8125)"/><g filter="url(#d)"><path d="M180 247.37c0-4.42 3.58-8 8-8h164c4.42 0 8 3.58 8 8V332c0 4.42-3.58 8-8 8H188c-4.42 0-8-3.58-8-8z" stroke="#000" stroke-opacity="0" fill="#c7e8ac"/><use xlink:href="#e" transform="matrix(1,0,0,1,185,244.37287960135666) translate(5.623456790123456 33.42013888888889)"/><use xlink:href="#f" transform="matrix(1,0,0,1,185,244.37287960135666) translate(19.493827160493822 70.75347222222223)"/><use xlink:href="#g" transform="matrix(1,0,0,1,185,244.37287960135666) translate(64.34567901234567 70.75347222222223)"/></g><path d="M960 640h619v153.6H960z" stroke="#000" stroke-opacity="0" fill="#fff" fill-opacity="0"/><use xlink:href="#h" transform="matrix(1,0,0,1,964.8,644.8) translate(57.611111111111086 54.5)"/><use xlink:href="#i" transform="matrix(1,0,0,1,964.8,644.8) translate(239.5 54.5)"/><use xlink:href="#j" transform="matrix(1,0,0,1,964.8,644.8) translate(272.8333333333333 54.5)"/><use xlink:href="#k" transform="matrix(1,0,0,1,964.8,644.8) translate(494.72222222222223 54.5)"/><use xlink:href="#l" transform="matrix(1,0,0,1,964.8,644.8) translate(235.22222222222223 102.5)"/><path d="M1064.67 1020h394.62v153.6h-394.63z" stroke="#000" stroke-opacity="0" fill="#fff" fill-opacity="0"/><use xlink:href="#m" transform="matrix(1,0,0,1,1069.4680604424227,1024.8) translate(68.83333333333331 54.5)"/><use xlink:href="#n" transform="matrix(1,0,0,1,1069.4680604424227,1024.8) translate(294.94444444444446 54.5)"/><use xlink:href="#o" transform="matrix(1,0,0,1,1069.4680604424227,1024.8) translate(18.944444444444457 102.5)"/><g filter="url(#p)"><path d="M460 247.37c0-4.42 3.58-8 8-8h184c4.42 0 8 3.58 8 8V332c0 4.42-3.58 8-8 8H468c-4.42 0-8-3.58-8-8z" stroke="#000" stroke-opacity="0" fill="#c7e8ac"/><use xlink:href="#q" transform="matrix(1,0,0,1,465,244.37287960135666) translate(6.160493827160494 33.42013888888889)"/><use xlink:href="#f" transform="matrix(1,0,0,1,465,244.37287960135666) translate(2.746913580246911 70.75347222222223)"/><use xlink:href="#r" transform="matrix(1,0,0,1,465,244.37287960135666) translate(47.598765432098766 70.75347222222223)"/><use xlink:href="#g" transform="matrix(1,0,0,1,465,244.37287960135666) translate(101.09259259259261 70.75347222222223)"/></g><g filter="url(#s)"><path d="M780 247.37c0-4.42 3.58-8 8-8h224c4.42 0 8 3.58 8 8V332c0 4.42-3.58 8-8 8H788c-4.42 0-8-3.58-8-8z" stroke="#000" stroke-opacity="0" fill="#c7e8ac"/><use xlink:href="#t" transform="matrix(1,0,0,1,785,244.37287960135666) translate(33.03086419753086 33.42013888888889)"/><use xlink:href="#u" transform="matrix(1,0,0,1,785,244.37287960135666) translate(160.75925925925924 33.42013888888889)"/><use xlink:href="#v" transform="matrix(1,0,0,1,785,244.37287960135666) translate(1.1851851851851904 70.75347222222223)"/><use xlink:href="#w" transform="matrix(1,0,0,1,785,244.37287960135666) translate(95.98765432098766 70.75347222222223)"/></g><g filter="url(#d)"><path d="M1300 308c0-4.42 3.58-8 8-8h164c4.42 0 8 3.58 8 8v84.63c0 4.42-3.58 8-8 8h-164c-4.42 0-8-3.58-8-8z" stroke="#000" stroke-opacity="0" fill="#c7e8ac"/><use xlink:href="#x" transform="matrix(1,0,0,1,1305,305) translate(14.351851851851848 50.48263888888889)"/></g><g filter="url(#s)"><path d="M1079 475.5c0-4.42 3.58-8 8-8h224c4.42 0 8 3.58 8 8v84.62c0 4.42-3.58 8-8 8h-224c-4.42 0-8-3.58-8-8z" stroke="#000" stroke-opacity="0" fill="#c7e8ac"/><use xlink:href="#y" transform="matrix(1,0,0,1,1084,472.4955311381327) translate(8.876543209876544 33.42013888888889)"/><use xlink:href="#f" transform="matrix(1,0,0,1,1084,472.4955311381327) translate(49.49382716049382 70.75347222222223)"/><use xlink:href="#g" transform="matrix(1,0,0,1,1084,472.4955311381327) translate(94.34567901234567 70.75347222222223)"/></g><g filter="url(#z)"><path d="M599.5 475.5c0-4.42 3.58-8 8-8h324c4.42 0 8 3.58 8 8v84.62c0 4.42-3.58 8-8 8h-324c-4.42 0-8-3.58-8-8z" stroke="#000" stroke-opacity="0" fill="#c7e8ac"/><use xlink:href="#t" transform="matrix(1,0,0,1,604.5,472.4955311381328) translate(2.7037037037036953 33.42013888888889)"/><use xlink:href="#f" transform="matrix(1,0,0,1,604.5,472.4955311381328) translate(130.4320987654321 33.42013888888889)"/><use xlink:href="#A" transform="matrix(1,0,0,1,604.5,472.4955311381328) translate(175.28395061728395 33.42013888888889)"/><use xlink:href="#B" transform="matrix(1,0,0,1,604.5,472.4955311381328) translate(209.85185185185185 33.42013888888889)"/><use xlink:href="#C" transform="matrix(1,0,0,1,604.5,472.4955311381328) translate(26.080246913580254 70.75347222222223)"/><use xlink:href="#D" transform="matrix(1,0,0,1,604.5,472.4955311381328) translate(163.91975308641977 70.75347222222223)"/></g><g filter="url(#s)"><path d="M220 475.5c0-4.42 3.58-8 8-8h224c4.42 0 8 3.58 8 8v84.62c0 4.42-3.58 8-8 8H228c-4.42 0-8-3.58-8-8z" stroke="#000" stroke-opacity="0" fill="#c7e8ac"/><use xlink:href="#t" transform="matrix(1,0,0,1,225,472.4955311381328) translate(33.03086419753086 33.42013888888889)"/><use xlink:href="#u" transform="matrix(1,0,0,1,225,472.4955311381328) translate(160.75925925925924 33.42013888888889)"/><use xlink:href="#E" transform="matrix(1,0,0,1,225,472.4955311381328) translate(28.75308641975309 70.75347222222223)"/></g><g filter="url(#F)"><path d="M280 706.5c0-4.42 3.58-8 8-8h324c4.42 0 8 3.58 8 8v86.13c0 4.42-3.58 8-8 8H288c-4.42 0-8-3.58-8-8z" stroke="#000" stroke-opacity="0" fill="#c7e8ac"/><use xlink:href="#G" transform="matrix(1,0,0,1,285,703.4997539570636) translate(63.19753086419753 33.60763888888889)"/><use xlink:href="#u" transform="matrix(1,0,0,1,285,703.4997539570636) translate(230.5925925925926 33.60763888888889)"/><use xlink:href="#H" transform="matrix(1,0,0,1,285,703.4997539570636) translate(7.1975308641975175 70.94097222222223)"/><use xlink:href="#I" transform="matrix(1,0,0,1,285,703.4997539570636) translate(145.20987654320987 70.94097222222223)"/></g><g filter="url(#s)"><path d="M761.9 707.25c0-4.42 3.58-8 8-8h224c4.42 0 8 3.58 8 8v84.63c0 4.42-3.58 8-8 8h-224c-4.42 0-8-3.58-8-8z" stroke="#000" stroke-opacity="0" fill="#c7e8ac"/><use xlink:href="#J" transform="matrix(1,0,0,1,766.896901828808,704.2498769785318) translate(21.839506172839506 33.42013888888889)"/><use xlink:href="#K" transform="matrix(1,0,0,1,766.896901828808,704.2498769785318) translate(163.30864197530866 33.42013888888889)"/><use xlink:href="#L" transform="matrix(1,0,0,1,766.896901828808,704.2498769785318) translate(58.95679012345679 70.75347222222223)"/></g><g filter="url(#s)"><path d="M1160 768c0-4.42 3.58-8 8-8h224c4.42 0 8 3.58 8 8v84.63c0 4.42-3.58 8-8 8h-224c-4.42 0-8-3.58-8-8z" stroke="#000" stroke-opacity="0" fill="#c7e8ac"/><use xlink:href="#M" transform="matrix(1,0,0,1,1165,765) translate(15.055555555555557 33.42013888888889)"/><use xlink:href="#N" transform="matrix(1,0,0,1,1165,765) translate(33.98148148148148 70.75347222222223)"/><use xlink:href="#O" transform="matrix(1,0,0,1,1165,765) translate(87.47530864197532 70.75347222222223)"/></g><g filter="url(#s)"><path d="M340 873.85c0-4.42 3.58-8 8-8h224c4.42 0 8 3.58 8 8v84.63c0 4.42-3.58 8-8 8H348c-4.42 0-8-3.58-8-8z" stroke="#000" stroke-opacity="0" fill="#c7e8ac"/><use xlink:href="#P" transform="matrix(1,0,0,1,345,870.8524099739582) translate(0.27777777777777146 50.48263888888889)"/><use xlink:href="#Q" transform="matrix(1,0,0,1,345,870.8524099739582) translate(121.17901234567901 50.48263888888889)"/></g><g filter="url(#s)"><path d="M400 1108c0-4.42 3.58-8 8-8h224c4.42 0 8 3.58 8 8v84.63c0 4.42-3.58 8-8 8H408c-4.42 0-8-3.58-8-8z" stroke="#000" stroke-opacity="0" fill="#c7e8ac"/><use xlink:href="#R" transform="matrix(1,0,0,1,405,1105) translate(55.41358024691358 33.42013888888889)"/><use xlink:href="#S" transform="matrix(1,0,0,1,405,1105) translate(18.339506172839506 70.75347222222223)"/></g><g filter="url(#s)"><path d="M769.5 1188c0-4.42 3.58-8 8-8h224c4.42 0 8 3.58 8 8v84.63c0 4.42-3.58 8-8 8h-224c-4.42 0-8-3.58-8-8z" stroke="#000" stroke-opacity="0" fill="#c7e8ac"/><use xlink:href="#T" transform="matrix(1,0,0,1,774.5,1185) translate(75.33333333333333 33.42013888888889)"/><use xlink:href="#U" transform="matrix(1,0,0,1,774.5,1185) translate(31.388888888888886 70.75347222222223)"/></g><g filter="url(#s)"><path d="M730 873.48c0-4.42 3.58-8 8-8h224c4.42 0 8 3.58 8 8v84.62c0 4.42-3.58 8-8 8H738c-4.42 0-8-3.58-8-8z" stroke="#000" stroke-opacity="0" fill="#c7e8ac"/><use xlink:href="#V" transform="matrix(1,0,0,1,735,870.477348463224) translate(51.17901234567901 33.42013888888889)"/><use xlink:href="#Q" transform="matrix(1,0,0,1,735,870.477348463224) translate(60.72839506172839 70.75347222222223)"/></g><path d="M700 1388c0-4.42 3.58-8 8-8h363c4.42 0 8 3.58 8 8v544c0 4.42-3.58 8-8 8H708c-4.42 0-8-3.58-8-8z" stroke="#000" stroke-opacity="0" fill="#b6e7f4"/><g filter="url(#W)"><path d="M883.25 1364.6c3.73-2.36 9.77-2.36 13.5 0l96.5 61.42c3.73 2.37 3.73 6.22 0 8.6l-96.5 61.4c-3.73 2.37-9.77 2.37-13.5 0l-96.5-61.4c-3.73-2.38-3.73-6.23 0-8.6z" stroke="#000" stroke-opacity="0" fill="#c7e8ac"/><use xlink:href="#X" transform="matrix(1,0,0,1,785,1365.3135601993217) translate(35.172839506172835 52.55555555555555)"/><use xlink:href="#Y" transform="matrix(1,0,0,1,785,1365.3135601993217) translate(100.76543209876543 52.55555555555555)"/><use xlink:href="#Z" transform="matrix(1,0,0,1,785,1365.3135601993217) translate(40.358024691358025 89.88888888888889)"/></g><g filter="url(#aa)"><path d="M883.06 1583.97c3.83-2.2 10.05-2.2 13.88 0l125.87 72.06c3.84 2.2 3.84 5.75 0 7.94l-125.86 72.06c-3.83 2.2-10.05 2.2-13.88 0l-125.87-72.06c-3.84-2.2-3.84-5.75 0-7.94z" stroke="#000" stroke-opacity="0" fill="#c7e8ac"/><use xlink:href="#ab" transform="matrix(1,0,0,1,755.25,1585) translate(78.95679012345678 62.55555555555555)"/><use xlink:href="#ac" transform="matrix(1,0,0,1,755.25,1585) translate(39.24691358024691 99.88888888888889)"/></g><g filter="url(#s)"><path d="M1160 898c0-4.42 3.58-8 8-8h224c4.42 0 8 3.58 8 8v84.63c0 4.42-3.58 8-8 8h-224c-4.42 0-8-3.58-8-8z" stroke="#000" stroke-opacity="0" fill="#c7e8ac"/><use xlink:href="#ad" transform="matrix(1,0,0,1,1165,895) translate(43.358024691358025 33.42013888888889)"/><use xlink:href="#Q" transform="matrix(1,0,0,1,1165,895) translate(60.72839506172839 70.75347222222223)"/></g><g filter="url(#ae)"><path d="M938 1840c17.67 0 32 17.9 32 40s-14.33 40-32 40h-96c-17.67 0-32-17.9-32-40s14.33-40 32-40z" stroke="#000" stroke-opacity="0" fill="#c7e8ac"/><use xlink:href="#af" transform="matrix(1,0,0,1,815,1845) translate(50.02469135802469 40.20138888888889)"/></g><g filter="url(#ae)"><path d="M308 80c17.67 0 32 17.9 32 40s-14.33 40-32 40h-96c-17.67 0-32-17.9-32-40s14.33-40 32-40z" stroke="#000" stroke-opacity="0" fill="#c7e8ac"/><use xlink:href="#ag" transform="matrix(1,0,0,1,185,85) translate(27.55555555555555 40.20138888888889)"/></g><path d="M260 162.5v52.02" stroke="#333" stroke-width="5" fill="none"/><path d="M262.5 162.56h-5V160h5z" fill="#333"/><path d="M260 231.28l-4.64-14.26h9.28z" stroke="#333" stroke-width="5" fill="#333"/><path d="M362.5 289.7h72.64" stroke="#333" stroke-width="5" fill="none"/><path d="M362.56 292.2H360v-5h2.56z" fill="#333"/><path d="M451.9 289.7l-14.26 4.62v-9.27z" stroke="#333" stroke-width="5" fill="#333"/><path d="M662.5 289.7h92.64" stroke="#333" stroke-width="5" fill="none"/><path d="M662.56 292.2H660v-5h2.56z" fill="#333"/><path d="M771.9 289.7l-14.26 4.62v-9.27z" stroke="#333" stroke-width="5" fill="#333"/><path d="M1022.5 289.7H1148c6.63 0 12 5.36 12 12v36.6c0 6.64 5.37 12 12 12h103.14" stroke="#333" stroke-width="5" fill="none"/><path d="M1022.56 292.2H1020v-5h2.56z" fill="#333"/><path d="M1291.9 350.3l-14.26 4.65v-9.27z" stroke="#333" stroke-width="5" fill="#333"/><path d="M1390 403.13V505.8c0 6.64-5.37 12-12 12h-34.14" stroke="#333" stroke-width="5" fill="none"/><path d="M1392.5 403.2h-5v-2.57h5z" fill="#333"/><path d="M1327.1 517.8l14.26-4.63v9.27z" stroke="#333" stroke-width="5" fill="#333"/><path d="M964.36 520h112.14" stroke="#333" stroke-width="5" fill="none"/><path d="M947.6 520l14.26-4.64v9.28z" stroke="#333" stroke-width="5" fill="#333"/><path d="M1079 522.5h-2.56v-5h2.56z" fill="#333"/><path d="M484.86 520H597" stroke="#333" stroke-width="5" fill="none"/><path d="M468.1 520l14.26-4.64v9.28z" stroke="#333" stroke-width="5" fill="#333"/><path d="M599.5 522.5h-2.56v-5h2.56z" fill="#333"/><path d="M450 673.64V645.3c0-6.62-5.37-12-12-12h-86c-6.63 0-12-5.36-12-12v-50.68" stroke="#333" stroke-width="5" fill="none"/><path d="M450 690.4l-4.64-14.26h9.28z" stroke="#333" stroke-width="5" fill="#333"/><path d="M342.5 570.7h-5v-2.58h5z" fill="#333"/><path d="M520 1075.14v-29.9c0-6.63-5.37-12-12-12h-36c-6.63 0-12-5.37-12-12v-52.26" stroke="#333" stroke-width="5" fill="none"/><path d="M520 1091.9l-4.64-14.26h9.28z" stroke="#333" stroke-width="5" fill="#333"/><path d="M462.5 969.04h-5v-2.56h5z" fill="#333"/><path d="M622.5 752.74h114.54" stroke="#333" stroke-width="5" fill="none"/><path d="M622.56 755.24H620v-5h2.56z" fill="#333"/><path d="M753.8 752.74l-14.26 4.63v-9.27z" stroke="#333" stroke-width="5" fill="#333"/><path d="M1004.4 749.56h64.55c6.63 0 12 5.38 12 12v15.07c0 6.63 5.37 12 12 12h42.2" stroke="#333" stroke-width="5" fill="none"/><path d="M1004.46 752.06h-2.56v-5h2.56z" fill="#333"/><path d="M1151.9 788.63l-14.26 4.64V784z" stroke="#333" stroke-width="5" fill="#333"/><path d="M604.86 916.17H727.5" stroke="#333" stroke-width="5" fill="none"/><path d="M588.1 916.17l14.26-4.64v9.27z" stroke="#333" stroke-width="5" fill="#333"/><path d="M730 918.67h-2.56v-5H730z" fill="#333"/><path d="M994.86 915.8H1053c6.63 0 12-5.38 12-12v-57.1c0-6.62 5.37-12 12-12h80.5" stroke="#333" stroke-width="5" fill="none"/><path d="M978.1 915.8l14.26-4.64v9.27z" stroke="#333" stroke-width="5" fill="#333"/><path d="M1160 837.2h-2.56v-5h2.56z" fill="#333"/><path d="M1089.86 913.43h10.64c6.63 0 12 5.38 12 12v2.88c0 6.64 5.37 12 12 12h33" stroke="#333" stroke-width="5" fill="none"/><path d="M1073.1 913.43l14.26-4.63v9.27z" stroke="#333" stroke-width="5" fill="#333"/><path d="M1160 942.8h-2.56v-5h2.56z" fill="#333"/><path d="M642.5 1150.3h50.25c6.63 0 12 5.4 12 12v56c0 6.64 5.37 12 12 12h27.9" stroke="#333" stroke-width="5" fill="none"/><path d="M642.56 1152.8H640v-5h2.56z" fill="#333"/><path d="M761.4 1230.3l-14.26 4.65v-9.27z" stroke="#333" stroke-width="5" fill="#333"/><path d="M890 1283.13v54.9" stroke="#333" stroke-width="5" fill="none"/><path d="M892.5 1283.2h-5v-2.57h5z" fill="#333"/><path d="M890 1354.8l-4.64-14.26h9.28z" stroke="#333" stroke-width="5" fill="#333"/><path d="M890 1500.23v57.25" stroke="#333" stroke-width="5" fill="none"/><path d="M892.5 1500.3h-5v-2.8l3.15.28 1.85-.3z" fill="#333"/><path d="M890 1574.25l-4.64-14.27h9.28z" stroke="#333" stroke-width="5" fill="#333"/><path d="M890 1740.16v74.98" stroke="#333" stroke-width="5" fill="none"/><path d="M889.94 1737.67l2.56-.3v2.86h-5v-2.88z" fill="#333"/><path d="M890 1831.9l-4.64-14.26h9.28z" stroke="#333" stroke-width="5" fill="#333"/><path d="M781.53 1430.3H172c-6.63 0-12-5.36-12-12V761.57c0-6.62 5.37-12 12-12h83.14" stroke="#333" stroke-width="5" fill="none"/><path d="M784.4 1428.5l-.43 2.13.78 2.12.07.06h-3.35v-5h3.5z" fill="#333"/><path d="M271.9 749.56l-14.26 4.64v-9.27z" stroke="#333" stroke-width="5" fill="#333"/><path d="M1028.67 1660H1598c6.63 0 12-5.37 12-12V952.3c0-6.6-5.37-12-12-12h-171.03" stroke="#333" stroke-width="6" fill="none"/><path d="M1028.75 1663h-4.8l1-.85.73-2.12-.7-2.13-1.05-.9h4.82z" fill="#333"/><path d="M1409.7 940.3l14.27-4.62v9.27z" stroke="#333" stroke-width="6" fill="#333"/><path d="M900 1508c0-4.42 3.58-8 8-8h40.23c4.42 0 8 3.58 8 8v44c0 4.42-3.58 8-8 8H908c-4.42 0-8-3.58-8-8z" stroke="#000" stroke-opacity="0" fill="#fff" fill-opacity="0"/><use xlink:href="#ah" transform="matrix(1,0,0,1,905,1505) translate(4.611111111111114 35.125)"/><path d="M1040 1608c0-4.42 3.58-8 8-8h40.23c4.42 0 8 3.58 8 8v44c0 4.42-3.58 8-8 8H1048c-4.42 0-8-3.58-8-8z" stroke="#000" stroke-opacity="0" fill="#fff" fill-opacity="0"/><g><use xlink:href="#ah" transform="matrix(1,0,0,1,1045,1605) translate(4.611111111111114 35.125)"/></g><path d="M713.27 1448c0-4.42 3.58-8 8-8h40.23c4.42 0 8 3.58 8 8v44c0 4.42-3.58 8-8 8h-40.23c-4.42 0-8-3.58-8-8z" stroke="#000" stroke-opacity="0" fill="#fff" fill-opacity="0"/><g><use xlink:href="#ai" transform="matrix(1,0,0,1,718.2724037586013,1445) translate(-3.0555555555555536 33)"/></g><path d="M900 1768c0-4.42 3.58-8 8-8h40.23c4.42 0 8 3.58 8 8v44c0 4.42-3.58 8-8 8H908c-4.42 0-8-3.58-8-8z" stroke="#000" stroke-opacity="0" fill="#fff" fill-opacity="0"/><g><use xlink:href="#ai" transform="matrix(1,0,0,1,905,1765) translate(-3.0555555555555536 33)"/></g><path d="M900 38c0-4.42 3.58-8 8-8h224c4.42 0 8 3.58 8 8v154c0 4.42-3.58 8-8 8H908c-4.42 0-8-3.58-8-8z" stroke="#000" stroke-opacity="0" fill="#fff" fill-opacity="0"/><g><use xlink:href="#aj" transform="matrix(1,0,0,1,905,35) translate(-276.2962962962963 107.16666666666667)"/></g><defs><path fill="#333" d="M199 0l-22-63H83L61 0H9l90-248h61L250 0h-51zm-33-102l-36-108c-10 38-24 72-36 108h72" id="ak"/><path fill="#333" d="M135-194c87-1 58 113 63 194h-50c-7-57 23-157-34-157-59 0-34 97-39 157H25l-1-190h47c2 12-1 28 3 38 12-26 28-41 61-42" id="al"/><path fill="#333" d="M132-34C116-15 102 5 68 4 31 3 10-16 10-54c-1-60 55-63 116-61 1-26-3-47-28-47-18 1-26 9-28 27l-52-2c7-38 36-58 82-57s74 22 75 68l1 82c-1 14 12 18 25 15v27c-30 8-71 5-69-32zm-48 3c29 0 43-24 42-57-32 0-66-3-65 30 0 17 8 27 23 27zM66-208v-5l45-51h45v8l-60 48H66" id="am"/><path fill="#333" d="M25 0v-261h50V0H25" id="an"/><path fill="#333" d="M25-224v-37h50v37H25zM25 0v-190h50V0H25" id="ao"/><path fill="#333" d="M137-138c1-29-70-34-71-4 15 46 118 7 119 86 1 83-164 76-172 9l43-7c4 19 20 25 44 25 33 8 57-30 24-41C81-84 22-81 20-136c-2-80 154-74 161-7" id="ap"/><g id="a"><use transform="matrix(0.1111111111111111,0,0,0.1111111111111111,0,0)" xlink:href="#ak"/><use transform="matrix(0.1111111111111111,0,0,0.1111111111111111,28.777777777777775,0)" xlink:href="#al"/><use transform="matrix(0.1111111111111111,0,0,0.1111111111111111,53.11111111111111,0)" xlink:href="#am"/><use transform="matrix(0.1111111111111111,0,0,0.1111111111111111,75.33333333333333,0)" xlink:href="#an"/><use transform="matrix(0.1111111111111111,0,0,0.1111111111111111,86.44444444444444,0)" xlink:href="#ao"/><use transform="matrix(0.1111111111111111,0,0,0.1111111111111111,97.55555555555556,0)" xlink:href="#ap"/><use transform="matrix(0.1111111111111111,0,0,0.1111111111111111,119.77777777777777,0)" xlink:href="#ao"/><use transform="matrix(0.1111111111111111,0,0,0.1111111111111111,130.88888888888889,0)" xlink:href="#ap"/></g><path fill="#333" d="M88-194c31-1 46 15 58 34l-1-101h50l1 261h-48c-2-10 0-23-3-31C134-8 116 4 84 4 32 4 16-41 15-95c0-56 19-97 73-99zm17 164c33 0 40-30 41-66 1-37-9-64-41-64s-38 30-39 65c0 43 13 65 39 65" id="aq"/><path fill="#333" d="M185-48c-13 30-37 53-82 52C43 2 14-33 14-96s30-98 90-98c62 0 83 45 84 108H66c0 31 8 55 39 56 18 0 30-7 34-22zm-45-69c5-46-57-63-70-21-2 6-4 13-4 21h74" id="ar"/><g id="b"><use transform="matrix(0.1111111111111111,0,0,0.1111111111111111,0,0)" xlink:href="#aq"/><use transform="matrix(0.1111111111111111,0,0,0.1111111111111111,24.333333333333332,0)" xlink:href="#ar"/></g><path fill="#333" d="M24-248c120-7 223 5 221 122C244-46 201 0 124 0H24v-248zM76-40c74 7 117-18 117-86 0-67-45-88-117-82v168" id="as"/><path fill="#333" d="M133-34C117-15 103 5 69 4 32 3 11-16 11-54c-1-60 55-63 116-61 1-26-3-47-28-47-18 1-26 9-28 27l-52-2c7-38 36-58 82-57s74 22 75 68l1 82c-1 14 12 18 25 15v27c-30 8-71 5-69-32zm-48 3c29 0 43-24 42-57-32 0-66-3-65 30 0 17 8 27 23 27" id="at"/><path fill="#333" d="M115-3C79 11 28 4 28-45v-112H4v-33h27l15-45h31v45h36v33H77v99c-1 23 16 31 38 25v30" id="au"/><path fill="#333" d="M110-194c64 0 96 36 96 99 0 64-35 99-97 99-61 0-95-36-95-99 0-62 34-99 96-99zm-1 164c35 0 45-28 45-65 0-40-10-65-43-65-34 0-45 26-45 65 0 36 10 65 43 65" id="av"/><g id="c"><use transform="matrix(0.1111111111111111,0,0,0.1111111111111111,0,0)" xlink:href="#as"/><use transform="matrix(0.1111111111111111,0,0,0.1111111111111111,28.777777777777775,0)" xlink:href="#at"/><use transform="matrix(0.1111111111111111,0,0,0.1111111111111111,51,0)" xlink:href="#au"/><use transform="matrix(0.1111111111111111,0,0,0.1111111111111111,64.22222222222223,0)" xlink:href="#av"/><use transform="matrix(0.1111111111111111,0,0,0.1111111111111111,88.55555555555556,0)" xlink:href="#ap"/></g><path d="M6 0l48-248h195l-8 40H98l-12 63h132l-7 40H79L66-40h150l-8 40H6" id="aw"/><path d="M127 0L95-67 37 0h-53l89-99-49-91h52l30 61 52-61h54l-85 92 52 98h-52" id="ax"/><path d="M72-63c-8 23 5 39 32 30L98-1C54 14 12-6 23-64l18-93H15l7-33h28l24-45h31l-8 45h35l-6 33H90" id="ay"/><path d="M84-151c13-25 34-51 72-40l-8 41C67-170 71-64 56 0H6l36-190h47" id="az"/><path d="M166-52c-4 17 5 29 24 23l-3 27c-30 11-74 1-67-34C105-15 91 4 56 4 23 4 3-15 2-49c0-64 63-67 128-67 10-22 3-53-29-45-13 3-22 10-25 24l-46-5c5-64 156-77 153 0-1 33-11 60-17 90zM97-88c-44-9-64 57-19 57 31 0 42-28 47-57H97" id="aA"/><path d="M67-101c-8 29-7 73 27 71 23-2 32-16 39-37l48 9C170-19 141 4 91 4 36 4 7-28 12-86c6-75 61-124 140-103 26 7 40 29 43 59l-50 4c-1-20-9-34-29-34-35 0-41 29-49 59" id="aB"/><path d="M50-224l7-37h49l-7 37H50zM6 0l37-190h49L55 0H6" id="aC"/><path d="M124-194c51 0 84 22 84 74C207-44 167 4 94 4 43 4 11-23 11-74c0-74 41-120 113-120zM99-30c46 0 58-42 58-86 0-27-11-44-37-44-44 0-55 40-57 84-1 27 10 45 36 46zm10-178c10-23 30-36 44-56h49l-1 8-67 48h-25" id="aD"/><path d="M151-194c95 0 34 128 28 194h-49l25-134c0-29-45-25-59-9C67-111 69-48 56 0H6l36-190h47l-4 32c15-20 33-36 66-36" id="aE"/><g id="e"><use transform="matrix(0.08641975308641976,0,0,0.08641975308641976,0,0)" xlink:href="#aw"/><use transform="matrix(0.08641975308641976,0,0,0.08641975308641976,20.740740740740744,0)" xlink:href="#ax"/><use transform="matrix(0.08641975308641976,0,0,0.08641975308641976,38.0246913580247,0)" xlink:href="#ay"/><use transform="matrix(0.08641975308641976,0,0,0.08641975308641976,48.308641975308646,0)" xlink:href="#az"/><use transform="matrix(0.08641975308641976,0,0,0.08641975308641976,60.40740740740741,0)" xlink:href="#aA"/><use transform="matrix(0.08641975308641976,0,0,0.08641975308641976,77.69135802469137,0)" xlink:href="#aB"/><use transform="matrix(0.08641975308641976,0,0,0.08641975308641976,94.97530864197532,0)" xlink:href="#aB"/><use transform="matrix(0.08641975308641976,0,0,0.08641975308641976,112.25925925925927,0)" xlink:href="#aC"/><use transform="matrix(0.08641975308641976,0,0,0.08641975308641976,120.90123456790124,0)" xlink:href="#aD"/><use transform="matrix(0.08641975308641976,0,0,0.08641975308641976,139.82716049382717,0)" xlink:href="#aE"/></g><path d="M132-28C118-9 101 4 69 4 30 4 10-23 10-62c0-70 24-129 92-132 31-1 47 14 56 35l19-102h49L179 0h-49zM62-69c0 22 7 39 29 39 45-2 54-45 57-90 2-27-10-40-33-40-44 0-53 48-53 91" id="aF"/><path d="M114-194c63-2 87 48 72 110H63c-3 28 1 55 31 54 21-1 32-13 37-29l44 13C160-14 137 4 91 4 41 4 11-22 11-73c0-71 33-119 103-121zm30 77c14-47-50-61-67-22-3 6-6 13-8 22h75" id="aG"/><g id="f"><use transform="matrix(0.08641975308641976,0,0,0.08641975308641976,0,0)" xlink:href="#aF"/><use transform="matrix(0.08641975308641976,0,0,0.08641975308641976,18.925925925925927,0)" xlink:href="#aG"/></g><path d="M250-142C247-53 197 0 108 0H6l48-248c105-5 200 3 196 106zm-49 2c1-57-42-72-103-68L66-40c84 6 135-22 135-100" id="aH"/><path d="M124-194c51 0 84 22 84 74C207-44 167 4 94 4 43 4 11-23 11-74c0-74 41-120 113-120zM99-30c46 0 58-42 58-86 0-27-11-44-37-44-44 0-55 40-57 84-1 27 10 45 36 46" id="aI"/><path d="M144-137c-1-29-70-35-71-2 16 41 103 10 103 80C176 9 79 16 32-9 18-17 9-31 4-48l44-6c3 32 80 36 82 1-15-42-103-11-103-82 0-77 157-79 161-8" id="aJ"/><g id="g"><use transform="matrix(0.08641975308641976,0,0,0.08641975308641976,0,0)" xlink:href="#aH"/><use transform="matrix(0.08641975308641976,0,0,0.08641975308641976,22.38271604938272,0)" xlink:href="#aA"/><use transform="matrix(0.08641975308641976,0,0,0.08641975308641976,39.66666666666667,0)" xlink:href="#ay"/><use transform="matrix(0.08641975308641976,0,0,0.08641975308641976,49.95061728395062,0)" xlink:href="#aI"/><use transform="matrix(0.08641975308641976,0,0,0.08641975308641976,68.87654320987654,0)" xlink:href="#aJ"/></g><filter id="d" filterUnits="objectBoundingBox" x="-.06" y="-.04" width="1.11" height="1.2"><feOffset result="offOut" in="SourceAlpha" dy="6"/><feGaussianBlur result="blurOut" in="offOut" stdDeviation="5"/><feColorMatrix result="colorOut" in="blurOut" values="0 0 0 0 0 0 0 0 0 0 0 0 0 0 0 0 0 0 0.5019607843137255 0"/><feBlend in="SourceGraphic" in2="colorOut"/></filter><path fill="#333" d="M67-125c0 53 21 87 73 88 37 1 54-22 65-47l45 17C233-25 199 4 140 4 58 4 20-42 15-125 8-235 124-281 211-232c18 10 29 29 36 50l-46 12c-8-25-30-41-62-41-52 0-71 34-72 86" id="aK"/><path fill="#333" d="M135-150c-39-12-60 13-60 57V0H25l-1-190h47c2 13-1 29 3 40 6-28 27-53 61-41v41" id="aL"/><path fill="#333" d="M190-63c-7 42-38 67-86 67-59 0-84-38-90-98-12-110 154-137 174-36l-49 2c-2-19-15-32-35-32-30 0-35 28-38 64-6 74 65 87 74 30" id="aM"/><path fill="#333" d="M110-194c64 0 96 36 96 99 0 64-35 99-97 99-61 0-95-36-95-99 0-62 34-99 96-99zm-1 164c35 0 45-28 45-65 0-40-10-65-43-65-34 0-45 26-45 65 0 36 10 65 43 65zM81-208v-5l45-51h45v8l-60 48H81" id="aN"/><g id="h"><use transform="matrix(0.1111111111111111,0,0,0.1111111111111111,0,0)" xlink:href="#aK"/><use transform="matrix(0.1111111111111111,0,0,0.1111111111111111,28.777777777777775,0)" xlink:href="#aL"/><use transform="matrix(0.1111111111111111,0,0,0.1111111111111111,44.33333333333333,0)" xlink:href="#ar"/><use transform="matrix(0.1111111111111111,0,0,0.1111111111111111,66.55555555555554,0)" xlink:href="#at"/><use transform="matrix(0.1111111111111111,0,0,0.1111111111111111,88.77777777777777,0)" xlink:href="#aM"/><use transform="matrix(0.1111111111111111,0,0,0.1111111111111111,111,0)" xlink:href="#ao"/><use transform="matrix(0.1111111111111111,0,0,0.1111111111111111,122.1111111111111,0)" xlink:href="#aN"/><use transform="matrix(0.1111111111111111,0,0,0.1111111111111111,146.44444444444446,0)" xlink:href="#al"/></g><path fill="#333" d="M123 10C108 53 80 86 19 72V37c35 8 53-11 59-39L3-190h52l48 148c12-52 28-100 44-148h51" id="aO"/><use transform="matrix(0.1111111111111111,0,0,0.1111111111111111,0,0)" xlink:href="#aO" id="i"/><path fill="#333" d="M24 0v-248h195v40H76v63h132v40H76v65h150V0H24" id="aP"/><path fill="#333" d="M128 0H69L1-190h53L99-40l48-150h52" id="aQ"/><path fill="#333" d="M85 4C-2 5 27-109 22-190h50c7 57-23 150 33 157 60-5 35-97 40-157h50l1 190h-47c-2-12 1-28-3-38-12 25-28 42-61 42" id="aR"/><g id="j"><use transform="matrix(0.1111111111111111,0,0,0.1111111111111111,0,0)" xlink:href="#aP"/><use transform="matrix(0.1111111111111111,0,0,0.1111111111111111,26.666666666666664,0)" xlink:href="#aQ"/><use transform="matrix(0.1111111111111111,0,0,0.1111111111111111,48.888888888888886,0)" xlink:href="#at"/><use transform="matrix(0.1111111111111111,0,0,0.1111111111111111,71.11111111111111,0)" xlink:href="#an"/><use transform="matrix(0.1111111111111111,0,0,0.1111111111111111,82.22222222222223,0)" xlink:href="#aR"/><use transform="matrix(0.1111111111111111,0,0,0.1111111111111111,106.55555555555556,0)" xlink:href="#at"/><use transform="matrix(0.1111111111111111,0,0,0.1111111111111111,128.77777777777777,0)" xlink:href="#aM"/><use transform="matrix(0.1111111111111111,0,0,0.1111111111111111,151,0)" xlink:href="#ao"/><use transform="matrix(0.1111111111111111,0,0,0.1111111111111111,162.11111111111111,0)" xlink:href="#aN"/><use transform="matrix(0.1111111111111111,0,0,0.1111111111111111,186.44444444444446,0)" xlink:href="#al"/></g><g id="k"><use transform="matrix(0.1111111111111111,0,0,0.1111111111111111,0,0)" xlink:href="#aq"/><use transform="matrix(0.1111111111111111,0,0,0.1111111111111111,24.333333333333332,0)" xlink:href="#ar"/><use transform="matrix(0.1111111111111111,0,0,0.1111111111111111,46.55555555555556,0)" xlink:href="#an"/></g><path fill="#333" d="M230 0l2-204L168 0h-37L68-204 70 0H24v-248h70l56 185 57-185h69V0h-46" id="aS"/><g id="l"><use transform="matrix(0.1111111111111111,0,0,0.1111111111111111,0,0)" xlink:href="#aS"/><use transform="matrix(0.1111111111111111,0,0,0.1111111111111111,33.22222222222222,0)" xlink:href="#av"/><use transform="matrix(0.1111111111111111,0,0,0.1111111111111111,57.55555555555555,0)" xlink:href="#aq"/><use transform="matrix(0.1111111111111111,0,0,0.1111111111111111,81.88888888888889,0)" xlink:href="#ar"/><use transform="matrix(0.1111111111111111,0,0,0.1111111111111111,104.11111111111111,0)" xlink:href="#an"/><use transform="matrix(0.1111111111111111,0,0,0.1111111111111111,115.22222222222224,0)" xlink:href="#av"/></g><path fill="#333" d="M240-174c0 40-23 61-54 70L253 0h-59l-57-94H76V0H24v-248c93 4 217-23 216 74zM76-134c48-2 112 12 112-38 0-48-66-32-112-35v73" id="aT"/><g id="m"><use transform="matrix(0.1111111111111111,0,0,0.1111111111111111,0,0)" xlink:href="#aT"/><use transform="matrix(0.1111111111111111,0,0,0.1111111111111111,28.777777777777775,0)" xlink:href="#ar"/><use transform="matrix(0.1111111111111111,0,0,0.1111111111111111,51,0)" xlink:href="#ap"/><use transform="matrix(0.1111111111111111,0,0,0.1111111111111111,73.22222222222223,0)" xlink:href="#aR"/><use transform="matrix(0.1111111111111111,0,0,0.1111111111111111,97.55555555555556,0)" xlink:href="#an"/><use transform="matrix(0.1111111111111111,0,0,0.1111111111111111,108.66666666666667,0)" xlink:href="#au"/><use transform="matrix(0.1111111111111111,0,0,0.1111111111111111,121.88888888888889,0)" xlink:href="#at"/><use transform="matrix(0.1111111111111111,0,0,0.1111111111111111,144.11111111111111,0)" xlink:href="#aq"/><use transform="matrix(0.1111111111111111,0,0,0.1111111111111111,168.44444444444446,0)" xlink:href="#av"/><use transform="matrix(0.1111111111111111,0,0,0.1111111111111111,192.7777777777778,0)" xlink:href="#ap"/></g><use transform="matrix(0.1111111111111111,0,0,0.1111111111111111,0,0)" xlink:href="#aO" id="n"/><path fill="#333" d="M220-157c-53 9-28 100-34 157h-49v-107c1-27-5-49-29-50C55-147 81-57 75 0H25l-1-190h47c2 12-1 28 3 38 10-53 101-56 108 0 13-22 24-43 59-42 82 1 51 116 57 194h-49v-107c-1-25-5-48-29-50" id="aU"/><g id="o"><use transform="matrix(0.1111111111111111,0,0,0.1111111111111111,0,0)" xlink:href="#aT"/><use transform="matrix(0.1111111111111111,0,0,0.1111111111111111,28.777777777777775,0)" xlink:href="#ar"/><use transform="matrix(0.1111111111111111,0,0,0.1111111111111111,51,0)" xlink:href="#au"/><use transform="matrix(0.1111111111111111,0,0,0.1111111111111111,64.22222222222223,0)" xlink:href="#aL"/><use transform="matrix(0.1111111111111111,0,0,0.1111111111111111,79.77777777777779,0)" xlink:href="#av"/><use transform="matrix(0.1111111111111111,0,0,0.1111111111111111,104.11111111111111,0)" xlink:href="#at"/><use transform="matrix(0.1111111111111111,0,0,0.1111111111111111,126.33333333333336,0)" xlink:href="#an"/><use transform="matrix(0.1111111111111111,0,0,0.1111111111111111,137.44444444444446,0)" xlink:href="#ao"/><use transform="matrix(0.1111111111111111,0,0,0.1111111111111111,148.55555555555557,0)" xlink:href="#aU"/><use transform="matrix(0.1111111111111111,0,0,0.1111111111111111,184.11111111111114,0)" xlink:href="#ar"/><use transform="matrix(0.1111111111111111,0,0,0.1111111111111111,206.33333333333337,0)" xlink:href="#al"/><use transform="matrix(0.1111111111111111,0,0,0.1111111111111111,230.6666666666667,0)" xlink:href="#au"/><use transform="matrix(0.1111111111111111,0,0,0.1111111111111111,243.8888888888889,0)" xlink:href="#at"/><use transform="matrix(0.1111111111111111,0,0,0.1111111111111111,266.11111111111114,0)" xlink:href="#aM"/><use transform="matrix(0.1111111111111111,0,0,0.1111111111111111,288.33333333333337,0)" xlink:href="#ao"/><use transform="matrix(0.1111111111111111,0,0,0.1111111111111111,299.44444444444446,0)" xlink:href="#aN"/><use transform="matrix(0.1111111111111111,0,0,0.1111111111111111,323.77777777777777,0)" xlink:href="#al"/></g><path d="M156-122c2-23-7-37-28-37-47 0-58 44-58 89 0 24 12 40 36 40 43 0 47-49 50-92zM-8 75l50-265h48c0 10-3 24-3 30 22-50 127-45 121 29-6 73-21 135-92 135-29 0-46-14-55-35L41 75H-8" id="aV"/><path d="M6 0l51-261h49L55 0H6" id="aW"/><g id="q"><use transform="matrix(0.08641975308641976,0,0,0.08641975308641976,0,0)" xlink:href="#aw"/><use transform="matrix(0.08641975308641976,0,0,0.08641975308641976,20.740740740740744,0)" xlink:href="#ax"/><use transform="matrix(0.08641975308641976,0,0,0.08641975308641976,38.0246913580247,0)" xlink:href="#aV"/><use transform="matrix(0.08641975308641976,0,0,0.08641975308641976,56.95061728395062,0)" xlink:href="#aW"/><use transform="matrix(0.08641975308641976,0,0,0.08641975308641976,65.5925925925926,0)" xlink:href="#aI"/><use transform="matrix(0.08641975308641976,0,0,0.08641975308641976,84.51851851851852,0)" xlink:href="#az"/><use transform="matrix(0.08641975308641976,0,0,0.08641975308641976,96.61728395061729,0)" xlink:href="#aA"/><use transform="matrix(0.08641975308641976,0,0,0.08641975308641976,113.90123456790124,0)" xlink:href="#aB"/><use transform="matrix(0.08641975308641976,0,0,0.08641975308641976,131.1851851851852,0)" xlink:href="#aC"/><use transform="matrix(0.08641975308641976,0,0,0.08641975308641976,139.82716049382717,0)" xlink:href="#aD"/><use transform="matrix(0.08641975308641976,0,0,0.08641975308641976,158.7530864197531,0)" xlink:href="#aE"/></g><g id="r"><use transform="matrix(0.08641975308641976,0,0,0.08641975308641976,0,0)" xlink:href="#aW"/><use transform="matrix(0.08641975308641976,0,0,0.08641975308641976,8.641975308641976,0)" xlink:href="#aI"/><use transform="matrix(0.08641975308641976,0,0,0.08641975308641976,27.567901234567906,0)" xlink:href="#aJ"/></g><filter id="p" filterUnits="objectBoundingBox" x="-.05" y="-.04" width="1.1" height="1.2"><feOffset result="offOut" in="SourceAlpha" dy="6"/><feGaussianBlur result="blurOut" in="offOut" stdDeviation="5"/><feColorMatrix result="colorOut" in="blurOut" values="0 0 0 0 0 0 0 0 0 0 0 0 0 0 0 0 0 0 0.5019607843137255 0"/><feBlend in="SourceGraphic" in2="colorOut"/></filter><path d="M183 0l-10-63H79L44 0H-7l138-248h61L234 0h-51zm-14-102l-15-108c-16 38-36 73-55 108h70" id="aX"/><path d="M166-52c-4 17 5 29 24 23l-3 27c-30 11-74 1-67-34C105-15 91 4 56 4 23 4 3-15 2-49c0-64 63-67 128-67 10-22 3-53-29-45-13 3-22 10-25 24l-46-5c5-64 156-77 153 0-1 33-11 60-17 90zM97-88c-44-9-64 57-19 57 31 0 42-28 47-57H97zm-2-120c10-23 30-36 44-56h49l-1 8-67 48H95" id="aY"/><g id="t"><use transform="matrix(0.08641975308641976,0,0,0.08641975308641976,0,0)" xlink:href="#aX"/><use transform="matrix(0.08641975308641976,0,0,0.08641975308641976,22.38271604938272,0)" xlink:href="#aE"/><use transform="matrix(0.08641975308641976,0,0,0.08641975308641976,41.308641975308646,0)" xlink:href="#aY"/><use transform="matrix(0.08641975308641976,0,0,0.08641975308641976,58.592592592592595,0)" xlink:href="#aW"/><use transform="matrix(0.08641975308641976,0,0,0.08641975308641976,67.23456790123457,0)" xlink:href="#aC"/><use transform="matrix(0.08641975308641976,0,0,0.08641975308641976,75.87654320987654,0)" xlink:href="#aJ"/><use transform="matrix(0.08641975308641976,0,0,0.08641975308641976,93.16049382716048,0)" xlink:href="#aC"/><use transform="matrix(0.08641975308641976,0,0,0.08641975308641976,101.80246913580245,0)" xlink:href="#aJ"/></g><g id="u"><use transform="matrix(0.08641975308641976,0,0,0.08641975308641976,0,0)" xlink:href="#aF"/><use transform="matrix(0.08641975308641976,0,0,0.08641975308641976,18.925925925925927,0)" xlink:href="#aG"/></g><g id="v"><use transform="matrix(0.08641975308641976,0,0,0.08641975308641976,0,0)" xlink:href="#aH"/><use transform="matrix(0.08641975308641976,0,0,0.08641975308641976,22.38271604938272,0)" xlink:href="#aA"/><use transform="matrix(0.08641975308641976,0,0,0.08641975308641976,39.66666666666667,0)" xlink:href="#ay"/><use transform="matrix(0.08641975308641976,0,0,0.08641975308641976,49.95061728395062,0)" xlink:href="#aI"/><use transform="matrix(0.08641975308641976,0,0,0.08641975308641976,68.87654320987654,0)" xlink:href="#aJ"/></g><path d="M241-173c-1 82-78 91-166 86L58 0H6l48-248c87 0 188-12 187 75zm-53 2c0-43-48-36-90-36l-15 80c50 0 105 7 105-44" id="aZ"/><g id="w"><use transform="matrix(0.08641975308641976,0,0,0.08641975308641976,0,0)" xlink:href="#aZ"/><use transform="matrix(0.08641975308641976,0,0,0.08641975308641976,20.740740740740744,0)" xlink:href="#aG"/><use transform="matrix(0.08641975308641976,0,0,0.08641975308641976,38.0246913580247,0)" xlink:href="#az"/><use transform="matrix(0.08641975308641976,0,0,0.08641975308641976,50.12345679012346,0)" xlink:href="#aF"/><use transform="matrix(0.08641975308641976,0,0,0.08641975308641976,69.0493827160494,0)" xlink:href="#aC"/><use transform="matrix(0.08641975308641976,0,0,0.08641975308641976,77.69135802469137,0)" xlink:href="#aF"/><use transform="matrix(0.08641975308641976,0,0,0.08641975308641976,96.61728395061729,0)" xlink:href="#aI"/><use transform="matrix(0.08641975308641976,0,0,0.08641975308641976,115.54320987654322,0)" xlink:href="#aJ"/></g><filter id="s" filterUnits="objectBoundingBox" x="-.04" y="-.04" width="1.08" height="1.2"><feOffset result="offOut" in="SourceAlpha" dy="6"/><feGaussianBlur result="blurOut" in="offOut" stdDeviation="5"/><feColorMatrix result="colorOut" in="blurOut" values="0 0 0 0 0 0 0 0 0 0 0 0 0 0 0 0 0 0 0.5019607843137255 0"/><feBlend in="SourceGraphic" in2="colorOut"/></filter><path d="M45-171c29-32 103-29 114 14 2-11 5-23 8-33h47L176-2c-3 70-92 96-155 64C9 56 1 42-1 25l50-5c2 28 48 27 63 11 13-13 20-45 21-66-13 20-30 35-62 36-87 3-60-134-26-172zM94-35c41-3 55-43 55-86 0-24-12-39-35-39-43 0-51 48-51 90 0 22 9 37 31 35" id="ba"/><g id="x"><use transform="matrix(0.08641975308641976,0,0,0.08641975308641976,0,0)" xlink:href="#aw"/><use transform="matrix(0.08641975308641976,0,0,0.08641975308641976,20.740740740740744,0)" xlink:href="#aE"/><use transform="matrix(0.08641975308641976,0,0,0.08641975308641976,39.66666666666667,0)" xlink:href="#aB"/><use transform="matrix(0.08641975308641976,0,0,0.08641975308641976,56.95061728395062,0)" xlink:href="#aI"/><use transform="matrix(0.08641975308641976,0,0,0.08641975308641976,75.87654320987654,0)" xlink:href="#aF"/><use transform="matrix(0.08641975308641976,0,0,0.08641975308641976,94.80246913580245,0)" xlink:href="#aC"/><use transform="matrix(0.08641975308641976,0,0,0.08641975308641976,103.44444444444443,0)" xlink:href="#aE"/><use transform="matrix(0.08641975308641976,0,0,0.08641975308641976,122.37037037037037,0)" xlink:href="#ba"/></g><path d="M155 0L90-199 52 0H6l48-248h62l66 201 38-201h46L218 0h-63" id="bb"/><path d="M255-194c90 0 29 129 24 194h-49l25-136c-7-39-53-14-60 9-12 38-18 85-28 127h-49l25-136c2-29-39-23-50-7C69-108 68-47 56 0H6l36-190h48c-1 10-6 24-4 32 12-20 27-36 57-36s46 15 50 41c14-21 29-41 62-41" id="bc"/><path d="M-6 0l7-35 114-120H31l7-35h142l-7 35L59-36h100l-7 36H-6" id="bd"/><g id="y"><use transform="matrix(0.08641975308641976,0,0,0.08641975308641976,0,0)" xlink:href="#bb"/><use transform="matrix(0.08641975308641976,0,0,0.08641975308641976,22.38271604938272,0)" xlink:href="#aI"/><use transform="matrix(0.08641975308641976,0,0,0.08641975308641976,41.308641975308646,0)" xlink:href="#az"/><use transform="matrix(0.08641975308641976,0,0,0.08641975308641976,53.40740740740741,0)" xlink:href="#bc"/><use transform="matrix(0.08641975308641976,0,0,0.08641975308641976,81.06172839506173,0)" xlink:href="#aA"/><use transform="matrix(0.08641975308641976,0,0,0.08641975308641976,98.34567901234568,0)" xlink:href="#aW"/><use transform="matrix(0.08641975308641976,0,0,0.08641975308641976,106.98765432098766,0)" xlink:href="#aC"/><use transform="matrix(0.08641975308641976,0,0,0.08641975308641976,115.62962962962965,0)" xlink:href="#bd"/><use transform="matrix(0.08641975308641976,0,0,0.08641975308641976,131.1851851851852,0)" xlink:href="#aA"/><use transform="matrix(0.08641975308641976,0,0,0.08641975308641976,148.46913580246914,0)" xlink:href="#aB"/><use transform="matrix(0.08641975308641976,0,0,0.08641975308641976,165.7530864197531,0)" xlink:href="#aC"/><use transform="matrix(0.08641975308641976,0,0,0.08641975308641976,174.39506172839506,0)" xlink:href="#aD"/><use transform="matrix(0.08641975308641976,0,0,0.08641975308641976,193.32098765432096,0)" xlink:href="#aE"/></g><g id="A"><use transform="matrix(0.08641975308641976,0,0,0.08641975308641976,0,0)" xlink:href="#aW"/><use transform="matrix(0.08641975308641976,0,0,0.08641975308641976,8.641975308641976,0)" xlink:href="#aA"/></g><path d="M109 0H50L19-190h51L86-37l77-153h54" id="be"/><path d="M87-160c15-17 32-34 63-34 99 1 59 172-1 192-36 12-78 0-87-29L54 0H6l52-261h49zm71 38c0-24-5-37-29-37-46 0-55 46-57 89-1 25 12 40 35 40 44 0 51-50 51-92" id="bf"/><g id="B"><use transform="matrix(0.08641975308641976,0,0,0.08641975308641976,0,0)" xlink:href="#be"/><use transform="matrix(0.08641975308641976,0,0,0.08641975308641976,17.283950617283953,0)" xlink:href="#aA"/><use transform="matrix(0.08641975308641976,0,0,0.08641975308641976,34.567901234567906,0)" xlink:href="#az"/><use transform="matrix(0.08641975308641976,0,0,0.08641975308641976,46.66666666666667,0)" xlink:href="#aC"/><use transform="matrix(0.08641975308641976,0,0,0.08641975308641976,55.308641975308646,0)" xlink:href="#aA"/><use transform="matrix(0.08641975308641976,0,0,0.08641975308641976,72.5925925925926,0)" xlink:href="#bf"/><use transform="matrix(0.08641975308641976,0,0,0.08641975308641976,91.51851851851853,0)" xlink:href="#aW"/><use transform="matrix(0.08641975308641976,0,0,0.08641975308641976,100.16049382716048,0)" xlink:href="#aG"/></g><path d="M50-224l7-37h49l-7 37H50zm1 246C45 64 7 85-39 71l7-33c23 5 33-8 36-27l39-201h49" id="bg"/><path d="M41-132l10-50h51l-10 50H41zM16 0l9-49h51L66 0H16" id="bh"/><g id="C"><use transform="matrix(0.08641975308641976,0,0,0.08641975308641976,0,0)" xlink:href="#aI"/><use transform="matrix(0.08641975308641976,0,0,0.08641975308641976,18.925925925925927,0)" xlink:href="#bf"/><use transform="matrix(0.08641975308641976,0,0,0.08641975308641976,37.851851851851855,0)" xlink:href="#bg"/><use transform="matrix(0.08641975308641976,0,0,0.08641975308641976,46.49382716049383,0)" xlink:href="#aG"/><use transform="matrix(0.08641975308641976,0,0,0.08641975308641976,63.777777777777786,0)" xlink:href="#ay"/><use transform="matrix(0.08641975308641976,0,0,0.08641975308641976,74.06172839506173,0)" xlink:href="#aC"/><use transform="matrix(0.08641975308641976,0,0,0.08641975308641976,82.70370370370371,0)" xlink:href="#be"/><use transform="matrix(0.08641975308641976,0,0,0.08641975308641976,99.98765432098766,0)" xlink:href="#aI"/><use transform="matrix(0.08641975308641976,0,0,0.08641975308641976,118.91358024691357,0)" xlink:href="#bh"/></g><path d="M178-136c88 48 22 151-73 140C49-3 12-15 4-64l51-9c1 50 111 53 115 3-16-63-132-20-133-112 0-93 190-91 199-10l-50 12c-4-41-93-50-97-4 7 38 59 32 89 48" id="bi"/><g id="D"><use transform="matrix(0.08641975308641976,0,0,0.08641975308641976,0,0)" xlink:href="#bi"/><use transform="matrix(0.08641975308641976,0,0,0.08641975308641976,20.740740740740744,0)" xlink:href="#aA"/><use transform="matrix(0.08641975308641976,0,0,0.08641975308641976,38.0246913580247,0)" xlink:href="#aW"/><use transform="matrix(0.08641975308641976,0,0,0.08641975308641976,46.66666666666667,0)" xlink:href="#aG"/><use transform="matrix(0.08641975308641976,0,0,0.08641975308641976,63.95061728395062,0)" xlink:href="#aZ"/><use transform="matrix(0.08641975308641976,0,0,0.08641975308641976,84.69135802469137,0)" xlink:href="#az"/><use transform="matrix(0.08641975308641976,0,0,0.08641975308641976,96.79012345679013,0)" xlink:href="#aC"/><use transform="matrix(0.08641975308641976,0,0,0.08641975308641976,105.43209876543212,0)" xlink:href="#aB"/><use transform="matrix(0.08641975308641976,0,0,0.08641975308641976,122.71604938271604,0)" xlink:href="#aG"/></g><filter id="z" filterUnits="objectBoundingBox" x="-.03" y="-.04" width="1.06" height="1.2"><feOffset result="offOut" in="SourceAlpha" dy="6"/><feGaussianBlur result="blurOut" in="offOut" stdDeviation="5"/><feColorMatrix result="colorOut" in="blurOut" values="0 0 0 0 0 0 0 0 0 0 0 0 0 0 0 0 0 0 0.5019607843137255 0"/><feBlend in="SourceGraphic" in2="colorOut"/></filter><path d="M161-211c-63 0-91 46-91 110 0 39 17 65 58 64 38-1 60-20 74-45l40 20C220-23 184 0 125 4 9 13-10-144 57-208c33-50 166-62 196-1 4 8 9 18 11 27l-48 12c-6-24-25-41-55-41" id="bj"/><g id="E"><use transform="matrix(0.08641975308641976,0,0,0.08641975308641976,0,0)" xlink:href="#bj"/><use transform="matrix(0.08641975308641976,0,0,0.08641975308641976,22.38271604938272,0)" xlink:href="#aI"/><use transform="matrix(0.08641975308641976,0,0,0.08641975308641976,41.308641975308646,0)" xlink:href="#az"/><use transform="matrix(0.08641975308641976,0,0,0.08641975308641976,53.40740740740741,0)" xlink:href="#az"/><use transform="matrix(0.08641975308641976,0,0,0.08641975308641976,65.50617283950618,0)" xlink:href="#aG"/><use transform="matrix(0.08641975308641976,0,0,0.08641975308641976,82.79012345679013,0)" xlink:href="#aW"/><use transform="matrix(0.08641975308641976,0,0,0.08641975308641976,91.4320987654321,0)" xlink:href="#aA"/><use transform="matrix(0.08641975308641976,0,0,0.08641975308641976,108.71604938271604,0)" xlink:href="#aB"/><use transform="matrix(0.08641975308641976,0,0,0.08641975308641976,126,0)" xlink:href="#aC"/><use transform="matrix(0.08641975308641976,0,0,0.08641975308641976,134.64197530864197,0)" xlink:href="#aD"/><use transform="matrix(0.08641975308641976,0,0,0.08641975308641976,153.5679012345679,0)" xlink:href="#aE"/></g><g id="G"><use transform="matrix(0.08641975308641976,0,0,0.08641975308641976,0,0)" xlink:href="#aw"/><use transform="matrix(0.08641975308641976,0,0,0.08641975308641976,20.740740740740744,0)" xlink:href="#ax"/><use transform="matrix(0.08641975308641976,0,0,0.08641975308641976,38.0246913580247,0)" xlink:href="#ay"/><use transform="matrix(0.08641975308641976,0,0,0.08641975308641976,48.308641975308646,0)" xlink:href="#az"/><use transform="matrix(0.08641975308641976,0,0,0.08641975308641976,60.40740740740741,0)" xlink:href="#aA"/><use transform="matrix(0.08641975308641976,0,0,0.08641975308641976,77.69135802469137,0)" xlink:href="#aB"/><use transform="matrix(0.08641975308641976,0,0,0.08641975308641976,94.97530864197532,0)" xlink:href="#aB"/><use transform="matrix(0.08641975308641976,0,0,0.08641975308641976,112.25925925925927,0)" xlink:href="#aC"/><use transform="matrix(0.08641975308641976,0,0,0.08641975308641976,120.90123456790124,0)" xlink:href="#aD"/><use transform="matrix(0.08641975308641976,0,0,0.08641975308641976,139.82716049382717,0)" xlink:href="#aE"/></g><path d="M98-208l-15 77h118l-8 40H76L58 0H6l48-248h174l-8 40H98" id="bk"/><path d="M69 3c-96 0-34-126-28-193h49L65-57c6 42 62 18 71-6 14-38 17-86 28-127h50L178 0h-47c0-11 4-26 3-33-14 20-30 37-65 36" id="bl"/><g id="H"><use transform="matrix(0.08641975308641976,0,0,0.08641975308641976,0,0)" xlink:href="#bk"/><use transform="matrix(0.08641975308641976,0,0,0.08641975308641976,18.925925925925927,0)" xlink:href="#aG"/><use transform="matrix(0.08641975308641976,0,0,0.08641975308641976,36.20987654320988,0)" xlink:href="#aA"/><use transform="matrix(0.08641975308641976,0,0,0.08641975308641976,53.49382716049383,0)" xlink:href="#ay"/><use transform="matrix(0.08641975308641976,0,0,0.08641975308641976,63.777777777777786,0)" xlink:href="#bl"/><use transform="matrix(0.08641975308641976,0,0,0.08641975308641976,82.70370370370371,0)" xlink:href="#az"/><use transform="matrix(0.08641975308641976,0,0,0.08641975308641976,94.80246913580248,0)" xlink:href="#aG"/><use transform="matrix(0.08641975308641976,0,0,0.08641975308641976,112.08641975308643,0)" xlink:href="#aJ"/></g><path d="M6 0l48-248h52L58 0H6" id="bm"/><g id="I"><use transform="matrix(0.08641975308641976,0,0,0.08641975308641976,0,0)" xlink:href="#bm"/><use transform="matrix(0.08641975308641976,0,0,0.08641975308641976,8.641975308641976,0)" xlink:href="#bc"/><use transform="matrix(0.08641975308641976,0,0,0.08641975308641976,36.2962962962963,0)" xlink:href="#aV"/><use transform="matrix(0.08641975308641976,0,0,0.08641975308641976,55.22222222222223,0)" xlink:href="#aI"/><use transform="matrix(0.08641975308641976,0,0,0.08641975308641976,74.14814814814815,0)" xlink:href="#az"/><use transform="matrix(0.08641975308641976,0,0,0.08641975308641976,86.24691358024691,0)" xlink:href="#ay"/><use transform="matrix(0.08641975308641976,0,0,0.08641975308641976,96.53086419753086,0)" xlink:href="#aA"/><use transform="matrix(0.08641975308641976,0,0,0.08641975308641976,113.81481481481481,0)" xlink:href="#aE"/><use transform="matrix(0.08641975308641976,0,0,0.08641975308641976,132.74074074074073,0)" xlink:href="#ay"/><use transform="matrix(0.08641975308641976,0,0,0.08641975308641976,143.02469135802468,0)" xlink:href="#aG"/><use transform="matrix(0.08641975308641976,0,0,0.08641975308641976,160.30864197530863,0)" xlink:href="#aJ"/></g><filter id="F" filterUnits="objectBoundingBox" x="-.03" y="-.04" width="1.06" height="1.2"><feOffset result="offOut" in="SourceAlpha" dy="6"/><feGaussianBlur result="blurOut" in="offOut" stdDeviation="5"/><feColorMatrix result="colorOut" in="blurOut" values="0 0 0 0 0 0 0 0 0 0 0 0 0 0 0 0 0 0 0.5019607843137255 0"/><feBlend in="SourceGraphic" in2="colorOut"/></filter><g id="J"><use transform="matrix(0.08641975308641976,0,0,0.08641975308641976,0,0)" xlink:href="#aZ"/><use transform="matrix(0.08641975308641976,0,0,0.08641975308641976,20.740740740740744,0)" xlink:href="#aA"/><use transform="matrix(0.08641975308641976,0,0,0.08641975308641976,38.0246913580247,0)" xlink:href="#az"/><use transform="matrix(0.08641975308641976,0,0,0.08641975308641976,50.12345679012346,0)" xlink:href="#ay"/><use transform="matrix(0.08641975308641976,0,0,0.08641975308641976,60.40740740740741,0)" xlink:href="#aC"/><use transform="matrix(0.08641975308641976,0,0,0.08641975308641976,69.0493827160494,0)" xlink:href="#aB"/><use transform="matrix(0.08641975308641976,0,0,0.08641975308641976,86.33333333333334,0)" xlink:href="#aC"/><use transform="matrix(0.08641975308641976,0,0,0.08641975308641976,94.97530864197532,0)" xlink:href="#aD"/><use transform="matrix(0.08641975308641976,0,0,0.08641975308641976,113.90123456790124,0)" xlink:href="#aE"/></g><g id="K"><use transform="matrix(0.08641975308641976,0,0,0.08641975308641976,0,0)" xlink:href="#aF"/><use transform="matrix(0.08641975308641976,0,0,0.08641975308641976,18.925925925925927,0)" xlink:href="#aG"/><use transform="matrix(0.08641975308641976,0,0,0.08641975308641976,36.20987654320988,0)" xlink:href="#aW"/></g><g id="L"><use transform="matrix(0.08641975308641976,0,0,0.08641975308641976,0,0)" xlink:href="#aH"/><use transform="matrix(0.08641975308641976,0,0,0.08641975308641976,22.38271604938272,0)" xlink:href="#aA"/><use transform="matrix(0.08641975308641976,0,0,0.08641975308641976,39.66666666666667,0)" xlink:href="#ay"/><use transform="matrix(0.08641975308641976,0,0,0.08641975308641976,49.95061728395062,0)" xlink:href="#aA"/><use transform="matrix(0.08641975308641976,0,0,0.08641975308641976,67.23456790123457,0)" xlink:href="#aJ"/><use transform="matrix(0.08641975308641976,0,0,0.08641975308641976,84.51851851851852,0)" xlink:href="#aG"/><use transform="matrix(0.08641975308641976,0,0,0.08641975308641976,101.80246913580245,0)" xlink:href="#ay"/></g><g id="M"><use transform="matrix(0.08641975308641976,0,0,0.08641975308641976,0,0)" xlink:href="#bj"/><use transform="matrix(0.08641975308641976,0,0,0.08641975308641976,22.38271604938272,0)" xlink:href="#aI"/><use transform="matrix(0.08641975308641976,0,0,0.08641975308641976,41.308641975308646,0)" xlink:href="#aE"/><use transform="matrix(0.08641975308641976,0,0,0.08641975308641976,60.23456790123458,0)" xlink:href="#aJ"/><use transform="matrix(0.08641975308641976,0,0,0.08641975308641976,77.51851851851852,0)" xlink:href="#ay"/><use transform="matrix(0.08641975308641976,0,0,0.08641975308641976,87.80246913580247,0)" xlink:href="#az"/><use transform="matrix(0.08641975308641976,0,0,0.08641975308641976,99.90123456790124,0)" xlink:href="#bl"/><use transform="matrix(0.08641975308641976,0,0,0.08641975308641976,118.82716049382718,0)" xlink:href="#aB"/><use transform="matrix(0.08641975308641976,0,0,0.08641975308641976,136.11111111111111,0)" xlink:href="#aB"/><use transform="matrix(0.08641975308641976,0,0,0.08641975308641976,153.39506172839506,0)" xlink:href="#aC"/><use transform="matrix(0.08641975308641976,0,0,0.08641975308641976,162.03703703703704,0)" xlink:href="#aD"/><use transform="matrix(0.08641975308641976,0,0,0.08641975308641976,180.96296296296293,0)" xlink:href="#aE"/></g><g id="N"><use transform="matrix(0.08641975308641976,0,0,0.08641975308641976,0,0)" xlink:href="#aF"/><use transform="matrix(0.08641975308641976,0,0,0.08641975308641976,18.925925925925927,0)" xlink:href="#aG"/><use transform="matrix(0.08641975308641976,0,0,0.08641975308641976,36.20987654320988,0)" xlink:href="#aW"/></g><path d="M212 0l43-212L151 0h-37L90-212C82-137 65-70 52 0H6l48-248h70l20 187 93-187h69L258 0h-46" id="bn"/><g id="O"><use transform="matrix(0.08641975308641976,0,0,0.08641975308641976,0,0)" xlink:href="#bn"/><use transform="matrix(0.08641975308641976,0,0,0.08641975308641976,25.83950617283951,0)" xlink:href="#aI"/><use transform="matrix(0.08641975308641976,0,0,0.08641975308641976,44.76543209876544,0)" xlink:href="#aF"/><use transform="matrix(0.08641975308641976,0,0,0.08641975308641976,63.69135802469137,0)" xlink:href="#aG"/><use transform="matrix(0.08641975308641976,0,0,0.08641975308641976,80.97530864197532,0)" xlink:href="#aW"/><use transform="matrix(0.08641975308641976,0,0,0.08641975308641976,89.61728395061729,0)" xlink:href="#aI"/></g><g id="P"><use transform="matrix(0.08641975308641976,0,0,0.08641975308641976,0,0)" xlink:href="#aw"/><use transform="matrix(0.08641975308641976,0,0,0.08641975308641976,20.740740740740744,0)" xlink:href="#be"/><use transform="matrix(0.08641975308641976,0,0,0.08641975308641976,38.0246913580247,0)" xlink:href="#aA"/><use transform="matrix(0.08641975308641976,0,0,0.08641975308641976,55.308641975308646,0)" xlink:href="#aW"/><use transform="matrix(0.08641975308641976,0,0,0.08641975308641976,63.95061728395062,0)" xlink:href="#bl"/><use transform="matrix(0.08641975308641976,0,0,0.08641975308641976,82.87654320987654,0)" xlink:href="#aA"/><use transform="matrix(0.08641975308641976,0,0,0.08641975308641976,100.16049382716048,0)" xlink:href="#az"/></g><g id="Q"><use transform="matrix(0.08641975308641976,0,0,0.08641975308641976,0,0)" xlink:href="#bn"/><use transform="matrix(0.08641975308641976,0,0,0.08641975308641976,25.83950617283951,0)" xlink:href="#aI"/><use transform="matrix(0.08641975308641976,0,0,0.08641975308641976,44.76543209876544,0)" xlink:href="#aF"/><use transform="matrix(0.08641975308641976,0,0,0.08641975308641976,63.69135802469137,0)" xlink:href="#aG"/><use transform="matrix(0.08641975308641976,0,0,0.08641975308641976,80.97530864197532,0)" xlink:href="#aW"/><use transform="matrix(0.08641975308641976,0,0,0.08641975308641976,89.61728395061729,0)" xlink:href="#aI"/></g><path d="M258-177c0 46-32 67-71 75L235 0h-57l-41-94H76L58 0H6l48-248c89 2 204-19 204 71zm-53 3c0-46-63-30-107-33l-14 73c51-2 120 13 121-40" id="bo"/><g id="R"><use transform="matrix(0.08641975308641976,0,0,0.08641975308641976,0,0)" xlink:href="#bo"/><use transform="matrix(0.08641975308641976,0,0,0.08641975308641976,22.38271604938272,0)" xlink:href="#aG"/><use transform="matrix(0.08641975308641976,0,0,0.08641975308641976,39.66666666666667,0)" xlink:href="#aA"/><use transform="matrix(0.08641975308641976,0,0,0.08641975308641976,56.95061728395062,0)" xlink:href="#aW"/><use transform="matrix(0.08641975308641976,0,0,0.08641975308641976,65.5925925925926,0)" xlink:href="#aC"/><use transform="matrix(0.08641975308641976,0,0,0.08641975308641976,74.23456790123457,0)" xlink:href="#bd"/><use transform="matrix(0.08641975308641976,0,0,0.08641975308641976,89.79012345679013,0)" xlink:href="#aA"/><use transform="matrix(0.08641975308641976,0,0,0.08641975308641976,107.07407407407409,0)" xlink:href="#az"/></g><g id="S"><use transform="matrix(0.08641975308641976,0,0,0.08641975308641976,0,0)" xlink:href="#aZ"/><use transform="matrix(0.08641975308641976,0,0,0.08641975308641976,20.740740740740744,0)" xlink:href="#az"/><use transform="matrix(0.08641975308641976,0,0,0.08641975308641976,32.839506172839506,0)" xlink:href="#aG"/><use transform="matrix(0.08641975308641976,0,0,0.08641975308641976,50.123456790123456,0)" xlink:href="#aF"/><use transform="matrix(0.08641975308641976,0,0,0.08641975308641976,69.04938271604938,0)" xlink:href="#aC"/><use transform="matrix(0.08641975308641976,0,0,0.08641975308641976,77.69135802469135,0)" xlink:href="#aB"/><use transform="matrix(0.08641975308641976,0,0,0.08641975308641976,94.9753086419753,0)" xlink:href="#aB"/><use transform="matrix(0.08641975308641976,0,0,0.08641975308641976,112.25925925925925,0)" xlink:href="#aC"/><use transform="matrix(0.08641975308641976,0,0,0.08641975308641976,120.90123456790123,0)" xlink:href="#aI"/><use transform="matrix(0.08641975308641976,0,0,0.08641975308641976,139.82716049382717,0)" xlink:href="#aE"/><use transform="matrix(0.08641975308641976,0,0,0.08641975308641976,158.7530864197531,0)" xlink:href="#aG"/><use transform="matrix(0.08641975308641976,0,0,0.08641975308641976,176.03703703703704,0)" xlink:href="#aJ"/></g><g id="T"><use transform="matrix(0.08641975308641976,0,0,0.08641975308641976,0,0)" xlink:href="#bi"/><use transform="matrix(0.08641975308641976,0,0,0.08641975308641976,20.740740740740744,0)" xlink:href="#bl"/><use transform="matrix(0.08641975308641976,0,0,0.08641975308641976,39.66666666666667,0)" xlink:href="#bf"/><use transform="matrix(0.08641975308641976,0,0,0.08641975308641976,58.592592592592595,0)" xlink:href="#aC"/><use transform="matrix(0.08641975308641976,0,0,0.08641975308641976,67.23456790123457,0)" xlink:href="#az"/></g><g id="U"><use transform="matrix(0.08641975308641976,0,0,0.08641975308641976,0,0)" xlink:href="#bo"/><use transform="matrix(0.08641975308641976,0,0,0.08641975308641976,22.38271604938272,0)" xlink:href="#aG"/><use transform="matrix(0.08641975308641976,0,0,0.08641975308641976,39.66666666666667,0)" xlink:href="#aJ"/><use transform="matrix(0.08641975308641976,0,0,0.08641975308641976,56.95061728395062,0)" xlink:href="#bl"/><use transform="matrix(0.08641975308641976,0,0,0.08641975308641976,75.87654320987654,0)" xlink:href="#aW"/><use transform="matrix(0.08641975308641976,0,0,0.08641975308641976,84.51851851851852,0)" xlink:href="#ay"/><use transform="matrix(0.08641975308641976,0,0,0.08641975308641976,94.80246913580245,0)" xlink:href="#aA"/><use transform="matrix(0.08641975308641976,0,0,0.08641975308641976,112.08641975308642,0)" xlink:href="#aF"/><use transform="matrix(0.08641975308641976,0,0,0.08641975308641976,131.01234567901236,0)" xlink:href="#aI"/><use transform="matrix(0.08641975308641976,0,0,0.08641975308641976,149.93827160493828,0)" xlink:href="#aJ"/></g><g id="V"><use transform="matrix(0.08641975308641976,0,0,0.08641975308641976,0,0)" xlink:href="#aw"/><use transform="matrix(0.08641975308641976,0,0,0.08641975308641976,20.740740740740744,0)" xlink:href="#aE"/><use transform="matrix(0.08641975308641976,0,0,0.08641975308641976,39.66666666666667,0)" xlink:href="#ay"/><use transform="matrix(0.08641975308641976,0,0,0.08641975308641976,49.95061728395062,0)" xlink:href="#az"/><use transform="matrix(0.08641975308641976,0,0,0.08641975308641976,62.04938271604939,0)" xlink:href="#aG"/><use transform="matrix(0.08641975308641976,0,0,0.08641975308641976,79.33333333333334,0)" xlink:href="#aE"/><use transform="matrix(0.08641975308641976,0,0,0.08641975308641976,98.25925925925927,0)" xlink:href="#aA"/><use transform="matrix(0.08641975308641976,0,0,0.08641975308641976,115.54320987654322,0)" xlink:href="#az"/></g><path d="M54-5c5 40 82 31 84-8l47 7c-13 42-45 62-99 67C2 69-21-34 46-65c20-15 49-20 54-50h47c-8 55-68 59-91 98-1 4-2 7-2 12zm109-185l-9 47h-51l9-47h51" id="bp"/><g id="X"><use transform="matrix(0.08641975308641976,0,0,0.08641975308641976,0,0)" xlink:href="#bp"/><use transform="matrix(0.08641975308641976,0,0,0.08641975308641976,18.925925925925927,0)" xlink:href="#aw"/><use transform="matrix(0.08641975308641976,0,0,0.08641975308641976,39.66666666666667,0)" xlink:href="#aJ"/></g><g id="Y"><use transform="matrix(0.08641975308641976,0,0,0.08641975308641976,0,0)" xlink:href="#bf"/><use transform="matrix(0.08641975308641976,0,0,0.08641975308641976,18.925925925925927,0)" xlink:href="#bl"/><use transform="matrix(0.08641975308641976,0,0,0.08641975308641976,37.851851851851855,0)" xlink:href="#aG"/><use transform="matrix(0.08641975308641976,0,0,0.08641975308641976,55.13580246913581,0)" xlink:href="#aE"/></g><path d="M163-185c-5-40-82-31-84 8l-47-7c13-42 43-68 99-67 46 1 82 17 82 62 0 69-80 60-96 114H70c8-55 68-59 91-98 1-4 2-7 2-12zM54 0l9-47h51l-9 47H54" id="bq"/><g id="Z"><use transform="matrix(0.08641975308641976,0,0,0.08641975308641976,0,0)" xlink:href="#bc"/><use transform="matrix(0.08641975308641976,0,0,0.08641975308641976,27.654320987654323,0)" xlink:href="#aI"/><use transform="matrix(0.08641975308641976,0,0,0.08641975308641976,46.580246913580254,0)" xlink:href="#aF"/><use transform="matrix(0.08641975308641976,0,0,0.08641975308641976,65.50617283950618,0)" xlink:href="#aG"/><use transform="matrix(0.08641975308641976,0,0,0.08641975308641976,82.79012345679013,0)" xlink:href="#aW"/><use transform="matrix(0.08641975308641976,0,0,0.08641975308641976,91.4320987654321,0)" xlink:href="#aI"/><use transform="matrix(0.08641975308641976,0,0,0.08641975308641976,110.35802469135801,0)" xlink:href="#bq"/></g><filter id="W" filterUnits="objectBoundingBox" x="-.05" y="-.03" width="1.09" height="1.14"><feOffset result="offOut" in="SourceAlpha" dy="6"/><feGaussianBlur result="blurOut" in="offOut" stdDeviation="5"/><feColorMatrix result="colorOut" in="blurOut" values="0 0 0 0 0 0 0 0 0 0 0 0 0 0 0 0 0 0 0.5019607843137255 0"/><feBlend in="SourceGraphic" in2="colorOut"/></filter><g id="ab"><use transform="matrix(0.08641975308641976,0,0,0.08641975308641976,0,0)" xlink:href="#bp"/><use transform="matrix(0.08641975308641976,0,0,0.08641975308641976,18.925925925925927,0)" xlink:href="#aZ"/><use transform="matrix(0.08641975308641976,0,0,0.08641975308641976,39.66666666666667,0)" xlink:href="#bl"/><use transform="matrix(0.08641975308641976,0,0,0.08641975308641976,58.592592592592595,0)" xlink:href="#aG"/><use transform="matrix(0.08641975308641976,0,0,0.08641975308641976,75.87654320987654,0)" xlink:href="#aF"/><use transform="matrix(0.08641975308641976,0,0,0.08641975308641976,94.80246913580245,0)" xlink:href="#aG"/></g><g id="ac"><use transform="matrix(0.08641975308641976,0,0,0.08641975308641976,0,0)" xlink:href="#aI"/><use transform="matrix(0.08641975308641976,0,0,0.08641975308641976,18.925925925925927,0)" xlink:href="#aV"/><use transform="matrix(0.08641975308641976,0,0,0.08641975308641976,37.851851851851855,0)" xlink:href="#ay"/><use transform="matrix(0.08641975308641976,0,0,0.08641975308641976,48.13580246913581,0)" xlink:href="#aC"/><use transform="matrix(0.08641975308641976,0,0,0.08641975308641976,56.77777777777777,0)" xlink:href="#bc"/><use transform="matrix(0.08641975308641976,0,0,0.08641975308641976,84.4320987654321,0)" xlink:href="#aC"/><use transform="matrix(0.08641975308641976,0,0,0.08641975308641976,93.07407407407409,0)" xlink:href="#bd"/><use transform="matrix(0.08641975308641976,0,0,0.08641975308641976,108.62962962962965,0)" xlink:href="#aA"/><use transform="matrix(0.08641975308641976,0,0,0.08641975308641976,125.91358024691357,0)" xlink:href="#az"/><use transform="matrix(0.08641975308641976,0,0,0.08641975308641976,138.01234567901236,0)" xlink:href="#aJ"/><use transform="matrix(0.08641975308641976,0,0,0.08641975308641976,155.2962962962963,0)" xlink:href="#aG"/><use transform="matrix(0.08641975308641976,0,0,0.08641975308641976,172.58024691358025,0)" xlink:href="#bq"/></g><filter id="aa" filterUnits="objectBoundingBox" x="-.04" y="-.03" width="1.07" height="1.13"><feOffset result="offOut" in="SourceAlpha" dy="6"/><feGaussianBlur result="blurOut" in="offOut" stdDeviation="5"/><feColorMatrix result="colorOut" in="blurOut" values="0 0 0 0 0 0 0 0 0 0 0 0 0 0 0 0 0 0 0.5019607843137255 0"/><feBlend in="SourceGraphic" in2="colorOut"/></filter><path d="M18-101c0-91 52-150 145-150 68 0 111 34 111 101C274-54 221 4 128 4 59 4 18-33 18-101zm202-32c4-46-15-77-59-77-65 0-88 46-91 108-2 41 22 65 60 65 60 0 84-40 90-96" id="br"/><g id="ad"><use transform="matrix(0.08641975308641976,0,0,0.08641975308641976,0,0)" xlink:href="#br"/><use transform="matrix(0.08641975308641976,0,0,0.08641975308641976,24.19753086419753,0)" xlink:href="#aV"/><use transform="matrix(0.08641975308641976,0,0,0.08641975308641976,43.123456790123456,0)" xlink:href="#ay"/><use transform="matrix(0.08641975308641976,0,0,0.08641975308641976,53.407407407407405,0)" xlink:href="#aC"/><use transform="matrix(0.08641975308641976,0,0,0.08641975308641976,62.04938271604938,0)" xlink:href="#bc"/><use transform="matrix(0.08641975308641976,0,0,0.08641975308641976,89.7037037037037,0)" xlink:href="#aC"/><use transform="matrix(0.08641975308641976,0,0,0.08641975308641976,98.34567901234567,0)" xlink:href="#bd"/><use transform="matrix(0.08641975308641976,0,0,0.08641975308641976,113.90123456790123,0)" xlink:href="#aA"/><use transform="matrix(0.08641975308641976,0,0,0.08641975308641976,131.1851851851852,0)" xlink:href="#az"/></g><g id="af"><use transform="matrix(0.08641975308641976,0,0,0.08641975308641976,0,0)" xlink:href="#bk"/><use transform="matrix(0.08641975308641976,0,0,0.08641975308641976,18.925925925925927,0)" xlink:href="#bm"/><use transform="matrix(0.08641975308641976,0,0,0.08641975308641976,27.567901234567906,0)" xlink:href="#bb"/></g><filter id="ae" filterUnits="objectBoundingBox" x="-.06" y="-.05" width="1.13" height="1.25"><feOffset result="offOut" in="SourceAlpha" dy="6"/><feGaussianBlur result="blurOut" in="offOut" stdDeviation="5"/><feColorMatrix result="colorOut" in="blurOut" values="0 0 0 0 0 0 0 0 0 0 0 0 0 0 0 0 0 0 0.5019607843137255 0"/><feBlend in="SourceGraphic" in2="colorOut"/></filter><g id="ag"><use transform="matrix(0.08641975308641976,0,0,0.08641975308641976,0,0)" xlink:href="#bm"/><use transform="matrix(0.08641975308641976,0,0,0.08641975308641976,8.641975308641976,0)" xlink:href="#bb"/><use transform="matrix(0.08641975308641976,0,0,0.08641975308641976,31.024691358024693,0)" xlink:href="#bm"/><use transform="matrix(0.08641975308641976,0,0,0.08641975308641976,39.66666666666667,0)" xlink:href="#bj"/><use transform="matrix(0.08641975308641976,0,0,0.08641975308641976,62.04938271604939,0)" xlink:href="#bm"/><use transform="matrix(0.08641975308641976,0,0,0.08641975308641976,70.69135802469137,0)" xlink:href="#br"/></g><path d="M6 0l37-190h49L55 0H6zm40-208c10-23 30-36 44-56h49l-1 8-67 48H46" id="bs"/><g id="ah"><use transform="matrix(0.1111111111111111,0,0,0.1111111111111111,0,0)" xlink:href="#bi"/><use transform="matrix(0.1111111111111111,0,0,0.1111111111111111,26.666666666666664,0)" xlink:href="#bs"/></g><g id="ai"><use transform="matrix(0.1111111111111111,0,0,0.1111111111111111,0,0)" xlink:href="#bb"/><use transform="matrix(0.1111111111111111,0,0,0.1111111111111111,28.777777777777775,0)" xlink:href="#aI"/></g><g id="aj"><use transform="matrix(0.3703703703703704,0,0,0.3703703703703704,0,0)" xlink:href="#bn"/><use transform="matrix(0.3703703703703704,0,0,0.3703703703703704,110.74074074074075,0)" xlink:href="#aG"/><use transform="matrix(0.3703703703703704,0,0,0.3703703703703704,184.81481481481484,0)" xlink:href="#ay"/><use transform="matrix(0.3703703703703704,0,0,0.3703703703703704,228.8888888888889,0)" xlink:href="#aI"/><use transform="matrix(0.3703703703703704,0,0,0.3703703703703704,310,0)" xlink:href="#aF"/><use transform="matrix(0.3703703703703704,0,0,0.3703703703703704,391.1111111111111,0)" xlink:href="#aI"/><use transform="matrix(0.3703703703703704,0,0,0.3703703703703704,472.2222222222222,0)" xlink:href="#aW"/><use transform="matrix(0.3703703703703704,0,0,0.3703703703703704,509.25925925925924,0)" xlink:href="#aI"/><use transform="matrix(0.3703703703703704,0,0,0.3703703703703704,590.3703703703703,0)" xlink:href="#ba"/><use transform="matrix(0.3703703703703704,0,0,0.3703703703703704,671.4814814814814,0)" xlink:href="#bs"/><use transform="matrix(0.3703703703703704,0,0,0.3703703703703704,708.5185185185185,0)" xlink:href="#aA"/></g></defs></g></svg>